<?xml version="1.0" encoding="utf-8"?>
<!-- Generator: Adobe Illustrator 23.0.2, SVG Export Plug-In . SVG Version: 6.00 Build 0)  -->
<svg version="1.1" id="Layer_1" xmlns="http://www.w3.org/2000/svg" xmlns:xlink="http://www.w3.org/1999/xlink" x="0px" y="0px"
	 viewBox="0 0 768 768" style="enable-background:new 0 0 768 768;" xml:space="preserve">
<style type="text/css">
	.st0{fill:#FFFFFF;}
	.st1{fill:#3D5C61;}
	.st2{fill:#F2D0BC;}
	.st3{fill:#D8B7A2;}
	.st4{clip-path:url(#SVGID_2_);}
	.st5{fill:#D4AF9E;}
	.st6{fill:#375355;}
	.st7{fill:#ECC7AF;}
	.st8{fill:#E5BDA1;}
	.st9{fill:url(#SVGID_3_);}
	.st10{fill:url(#SVGID_4_);}
	.st11{fill:url(#SVGID_5_);}
	.st12{fill:url(#SVGID_6_);}
	.st13{fill:#232020;}
	.st14{fill:#B4BBC5;}
	.st15{fill:#2A7DE1;}
</style>
<g>
	<circle class="st0" cx="384" cy="384" r="370"/>
</g>
<rect x="361.1" y="659" class="st1" width="45.7" height="75"/>
<rect x="361.1" y="588" class="st2" width="45.7" height="70.9"/>
<rect x="361.1" y="571" class="st3" width="45.7" height="17"/>
<rect x="361.1" y="223" class="st2" width="45.7" height="348"/>
<g>
	<g>
		<g>
			<defs>
				<circle id="SVGID_1_" cx="384" cy="384" r="370"/>
			</defs>
			<clipPath id="SVGID_2_">
				<use xlink:href="#SVGID_1_"  style="overflow:visible;"/>
			</clipPath>
			<g class="st4">
				<g>
					<g>
						<path class="st5" d="M384,588V452.3l80,15.7c0,31.5,0.2,59.5,2.6,83.3C443.6,574.3,415,588,384,588z"/>
					</g>
					<g>
						<path class="st6" d="M494.7,622.3c10.3,8.3,84.4,28.9,102.3,32.7c71,15,116,52,116,127c0,57.2-229.7,73-329,82V659
							C426.4,658.1,465,644.5,494.7,622.3z"/>
					</g>
					<g>
						<path class="st7" d="M384,588c31,0,59.6-13.7,82.6-36.7c3.3,32.8,10.9,57.3,28,71C465,644.5,426.4,658.1,384,659V588z"/>
					</g>
					<g>
						<path class="st3" d="M384,588V452.3L304,468c0,31.5-0.2,59.5-2.6,83.3C324.4,574.3,353,588,384,588z"/>
					</g>
					<g>
						<path class="st1" d="M273.3,622.3C263,630.6,188.9,651.2,171,655c-71,15-116,52-116,127c0,57.2,229.7,73,329,82V659
							C341.6,658.1,303,644.5,273.3,622.3z"/>
					</g>
					<path class="st2" d="M384,588c-31,0-59.6-13.7-82.6-36.7c-3.3,32.8-10.9,57.3-28,71C303,644.5,341.6,658.1,384,659V588z"/>
				</g>
				<g>
					<g>
						<path class="st8" d="M550,351.5c0-18.5-9-25.5-20-25.5s-20,15-20,33.5s-1,58.5,10,58.5S550,370,550,351.5z"/>
					</g>
					<g>
						<path class="st7" d="M218,351.5c0-18.5,9-25.5,20-25.5s20,15,20,33.5s1,58.5-10,58.5S218,370,218,351.5z"/>
					</g>
					<g>
						<path class="st2" d="M246,386.5C246,488.4,307.8,571,384,571V202C217,202,246,284.6,246,386.5z"/>
						<g>
							<path class="st7" d="M522,386.5C522,284.6,557,202,384,202v369C460.2,571,522,488.4,522,386.5z"/>
						</g>
					</g>
				</g>
				<g>
					
						<linearGradient id="SVGID_3_" gradientUnits="userSpaceOnUse" x1="381.3736" y1="606.25" x2="386.6264" y2="606.25" gradientTransform="matrix(1 0 0 -1 0 768)">
						<stop  offset="0.55" style="stop-color:#15181C"/>
						<stop  offset="0.9963" style="stop-color:#15181C"/>
					</linearGradient>
					<polygon class="st9" points="381.4,221 384,223 386.6,221 386.6,101.5 384,100.5 381.4,102.2 					"/>
					<linearGradient id="SVGID_4_" gradientUnits="userSpaceOnUse" x1="273.0858" y1="424.4233" x2="333.2281" y2="83.3398">
						<stop  offset="0.25" style="stop-color:#F2D0BC"/>
						<stop  offset="0.55" style="stop-color:#15181C"/>
					</linearGradient>
					<path class="st10" d="M384,94.5l-22,8.5c0,0,5-6,9-13c-9,8-29,21-29,21s8-8,10-16c-14,10-41,25-41,25s15-12,22-21
						c-9,7-39,26-39,26s5-9,7-18c-5,8-24,32-24,32s1-6,2-14c-2,6-9,21-9,21s1-7,0-11c-3,10-6,18-6,18s1-8,0-19c-1,11-5,27-5,27
						s-2-4-2-15c-5,21-6,30-6,30s-1-6,0-17c-6,21-6,30-6,30s-1-5,0-14c-3,11-3,19-3,19s-1-3-1-8c-2,12-2,23-2,23s-1-6-1-13
						c-2,9-3,34-3,34c-2,14-2,96,3,96s6,5,6,15c0,26,4,79,4,79s3-50,3-91c0-61,25-27,25-58c0-30,1-54,21-54s17,6,87,6v-41.4V117
						v-16.5l-11,5.5l11-8.2V94.5z"/>
					<linearGradient id="SVGID_5_" gradientUnits="userSpaceOnUse" x1="537.8097" y1="413.5178" x2="418.2973" y2="85.1602">
						<stop  offset="0.25" style="stop-color:#ECC7AF"/>
						<stop  offset="0.55" style="stop-color:#121217"/>
					</linearGradient>
					<path class="st11" d="M533,230c-0.1-0.7-0.3-1.7-0.5-2.8L531,219c0,0,2,1,3,1c-3-4-6.7-11.3-6.7-11.3s2.7,1.3,5.7,0.3
						c-6-5-9.4-9.3-9.4-9.3S527,202,534,202c-8-5-12-9-12-9s4,1,10,0c-7-4-10-8-10-8s3,2,12,1c-10-6-12-10-12-10s6-1,8-5
						c-12-3-14-5-14-5s2,0,10-3c-10-2-14-4-14-4s3,0,12-2c-11-2-14-4-14-4s6,0,16-4c-19,0-24-2-24-2s4,0,17-5c-18-1-22-3-22-3
						s7-1,21-6c-22,2-28,1-28,1s9-1,23-7c-21,1-30-1-30-1s8-3,19-8c-19,3-29,3-29,3s13-3,24-8c-25,1-31,0-31,0s6-1,17-7
						c-21,2-30,1-30,1s7-3,15-8c-12,3-32,4-32,4s10-3,17-8c-19,5-27,6-27,6s6-1,14-10c-7,5-32,13-32,13s11-8,17-14
						c-20,9-32,12-32,12s5-4,12-12c-7,4-21,10.5-21,10.5V117v64.6V223c71.4,0,62.5-6,87-6c20,0,21,24,21,54c0,31,25-3,25,58
						c0,41,3,91,3,91s4-53,4-79c0-10,1-15,6-15S535,244,533,230z"/>
					<linearGradient id="SVGID_6_" gradientUnits="userSpaceOnUse" x1="384" y1="94.4" x2="393" y2="94.4">
						<stop  offset="0" style="stop-color:#121217"/>
						<stop  offset="3.746569e-02" style="stop-color:#121217"/>
						<stop  offset="1" style="stop-color:#121217"/>
					</linearGradient>
					<polygon class="st12" points="393,91 384,94.5 384,97.8 					"/>
				</g>
				<g>
					<path class="st13" d="M253.8,325.1c1.7-3.7,4.8-6.6,8.7-7.9h0.3c0,0,43.6-10.6,87.2,4.8c7.6,3.3,12.5,10.8,12.5,19.1
						c-0.2,5.3-0.9,10.6-2.1,15.7h7.5c1.8-5,3.1-9.2,3.9-11.2c2.7-6.9,12.1-6.2,12.1-6.2s9.5-0.7,12.1,6.2c0.8,2,2.2,6.2,4,11.3h7.5
						c-1.3-5.3-2-10.6-1.9-15.6c0-8.3,4.9-15.8,12.5-19.1c43.4-15.5,86.9-4.9,86.9-4.9c3.9,1.2,7.1,4.1,8.7,7.9
						c2.4,10.5,2.6,21.3,0.6,31.9h7.4c0.8-3.7,1.5-7.4,2-11.2c0,0,0.7-18.5,10.1-19.6v-16.1c0,0-64.2-8.2-121.1,3.5
						c-2.6,0.9-5,2.4-6.9,4.4c-3.6,3.3-8,5.4-12.8,6.2h-18.1c-4.8-0.8-9.2-2.9-12.8-6.2c-1.9-2-4.3-3.5-6.9-4.4
						c-56.9-11.5-121.1-3.5-121.1-3.5L234,326c9.5,1.1,10.1,19.6,10.1,19.6c0.5,3.8,1.2,7.6,2,11.4h7.4
						C251.4,346.5,251.5,335.6,253.8,325.1z"/>
					<path class="st14" d="M514.1,358.5L514.1,358.5c-4.1,16.5-6.5,25.8-9.8,29.5c-2.5,2.9-5.7,5.1-9.2,6.4
						c-10.1,4-20.8,6.1-31.6,6.2c-16.3-0.2-31.2-0.3-40.1-10.9c-6.3-7.5-12.7-20-15.8-32.8h-7.5c4.3,12,10.9,29,17.4,35.1
						c9.3,8.6,13.8,10.4,19.4,11.9c15.4,2.8,31.1,2.8,46.5,0c16.5-4,24.8-4.5,32.1-25.3c2.6-7.1,4.8-14.3,6.3-21.7h-7.4
						C514.3,357.5,514.2,358,514.1,358.5z"/>
					<path class="st14" d="M284.5,404.1c15.4,2.8,31.2,2.8,46.6,0c5.7-1.6,9.9-3.5,19.4-11.9c6.7-6,13.2-23.1,17.5-35.1h-7.5
						c-2.7,11.9-8.1,23.1-15.7,32.8v-0.1c-8.9,10.6-23.7,10.7-40.1,10.9c-10.8-0.1-21.5-2.2-31.6-6.2c-3.6-1.3-6.8-3.5-9.2-6.4
						c-3.5-3.7-5.7-12.9-9.9-29.5c-0.1-0.5-0.2-1-0.3-1.5h-7.4c1.6,7.4,3.7,14.6,6.3,21.7C259.7,399.5,267.9,400.1,284.5,404.1z"/>
				</g>
			</g>
		</g>
	</g>
</g>
<path class="st15" d="M384,34c47.3,0,93.1,9.3,136.2,27.5c41.7,17.6,79.1,42.9,111.3,75c32.1,32.1,57.4,69.6,75,111.3
	c18.2,43.1,27.5,89,27.5,136.2s-9.3,93.1-27.5,136.2c-17.6,41.7-42.9,79.1-75,111.3c-32.1,32.1-69.6,57.4-111.3,75
	c-43.1,18.2-89,27.5-136.2,27.5s-93.1-9.3-136.2-27.5c-41.7-17.6-79.1-42.9-111.3-75c-32.1-32.1-57.4-69.6-75-111.3
	C43.3,477.1,34,431.3,34,384s9.3-93.1,27.5-136.2c17.6-41.7,42.9-79.1,75-111.3s69.6-57.4,111.3-75C290.9,43.3,336.7,34,384,34
	 M384,14C179.7,14,14,179.7,14,384s165.7,370,370,370s370-165.7,370-370S588.3,14,384,14L384,14z"/>
</svg>
